<?xml version="1.0" standalone="no"?>
<!DOCTYPE svg PUBLIC "-//W3C//DTD SVG 20010904//EN"
 "http://www.w3.org/TR/2001/REC-SVG-20010904/DTD/svg10.dtd">
<svg version="1.0" xmlns="http://www.w3.org/2000/svg"
 width="1620.000000pt" height="602.000000pt" viewBox="0 0 1620.000000 602.000000"
 preserveAspectRatio="xMidYMid meet">
<metadata>
Created by potrace 1.16, written by Peter Selinger 2001-2019
</metadata>
<g transform="translate(0.000000,602.000000) scale(0.100000,-0.100000)"
fill="#000000" stroke="none">
<path d="M0 3010 l0 -3010 8100 0 8100 0 -1 2008 c0 1104 -4 1995 -9 1980 -24
-79 -132 -188 -241 -242 -172 -86 -471 -86 -641 0 -99 50 -172 138 -210 254
-22 63 -23 80 -26 608 l-3 542 -103 0 c-114 0 -138 10 -138 55 0 46 23 55 139
55 l103 0 0 113 1 112 307 137 307 137 3 -250 2 -249 188 0 c203 0 232 -7 232
-54 0 -51 -21 -56 -228 -56 l-192 0 0 -681 0 -682 66 6 c45 3 84 14 127 35 95
47 131 83 171 167 50 104 98 124 133 54 10 -19 13 175 13 974 l0 997 -8100 0
-8100 0 0 -3010z m1416 1774 c269 -581 491 -1060 492 -1065 2 -5 -154 -9 -375
-9 l-379 0 -54 118 c-29 64 -56 120 -59 123 -3 4 -180 10 -392 14 l-385 7 -49
-122 c-51 -124 -77 -160 -119 -160 -27 0 -40 9 -55 38 -10 19 -9 29 8 60 60
109 91 174 86 182 -4 6 -15 10 -26 10 -59 0 -103 55 -80 99 15 27 49 35 114
27 l53 -7 358 871 c198 478 362 870 366 870 4 0 227 -475 496 -1056z m8114
426 c0 -302 2 -550 5 -550 19 0 666 480 731 543 65 62 87 77 112 77 17 0 38
-7 46 -16 43 -42 12 -79 -197 -242 -105 -81 -195 -150 -199 -153 -5 -3 109
-260 253 -570 143 -310 263 -570 266 -576 4 -10 -64 -13 -320 -13 l-324 0
-184 407 -184 408 -3 -408 -2 -407 -310 0 -310 0 0 1025 0 1025 310 0 310 0 0
-550z m-5969 60 c132 -24 251 -112 301 -221 l22 -50 50 50 c69 66 138 117 210
153 115 58 162 70 301 75 197 8 297 -21 397 -115 54 -50 99 -136 117 -220 7
-35 11 -251 11 -642 l0 -590 -310 0 -310 0 0 705 0 705 -63 0 c-96 0 -169 -40
-284 -157 l-93 -93 0 -580 0 -580 -310 0 -310 0 -2 703 -3 702 -59 3 c-52 3
-70 -2 -132 -32 -56 -28 -90 -56 -158 -126 l-86 -91 0 -580 0 -579 -315 0
-315 0 2 773 3 772 313 3 312 2 0 -115 0 -115 78 66 c86 72 223 145 317 168
71 17 240 20 316 6z m2882 -5 c207 -31 340 -88 448 -195 69 -68 103 -128 135
-235 16 -53 18 -119 21 -592 l4 -533 -310 0 -311 0 0 46 c0 25 -3 44 -7 42 -5
-2 -41 -20 -82 -41 -235 -122 -589 -94 -798 63 -195 147 -258 452 -142 682 61
120 196 227 349 277 181 58 422 52 612 -14 l68 -24 0 199 0 199 -37 10 c-90
25 -238 35 -342 22 -174 -21 -279 -58 -370 -131 -48 -39 -92 -43 -123 -13 -62
62 53 154 262 208 175 46 430 58 623 30z m2231 -16 c92 -80 27 -220 -101 -219
-21 1 -49 7 -63 15 -104 59 -231 -77 -320 -343 -53 -160 -60 -228 -60 -628 l0
-364 -315 0 -315 0 0 775 0 775 315 0 315 0 0 -222 0 -223 55 110 c118 238
248 355 391 355 56 0 67 -3 98 -31z m3129 16 c209 -31 338 -87 447 -194 73
-71 104 -125 137 -236 15 -53 18 -120 21 -592 l3 -533 -311 0 -310 0 0 45 0
45 -77 -40 c-102 -51 -184 -71 -318 -77 -287 -13 -529 106 -630 310 -169 343
5 697 391 798 169 44 395 34 566 -26 l68 -24 0 199 0 199 -37 10 c-238 62
-533 19 -702 -102 -58 -43 -75 -49 -105 -37 -63 23 -51 92 23 139 79 51 226
97 401 124 67 11 339 6 433 -8z m2419 4 c171 -36 291 -157 327 -327 7 -35 11
-251 11 -642 l0 -590 -310 0 -310 0 0 695 0 694 -22 12 c-34 18 -131 5 -181
-24 -59 -35 -143 -109 -199 -175 l-48 -56 0 -573 0 -573 -315 0 -315 0 0 775
0 775 315 0 315 0 0 -121 0 -121 63 55 c117 101 229 163 345 192 70 16 252 19
324 4z m-4530 -1963 c119 -49 192 -135 205 -244 19 -160 -169 -292 -417 -292
-180 0 -318 71 -367 189 -23 54 -21 148 5 197 62 120 206 186 397 180 92 -2
121 -7 177 -30z m-7978 -1431 c329 -710 600 -1296 603 -1302 4 -10 -92 -13
-459 -13 l-464 0 -68 148 c-38 81 -71 150 -75 153 -3 4 -218 9 -477 11 l-471
5 -38 -91 c-73 -177 -88 -207 -113 -227 -56 -44 -139 -8 -129 57 3 17 22 57
42 88 39 62 85 154 85 172 0 6 -19 14 -42 17 -58 8 -92 36 -96 79 -3 29 2 40
25 58 24 19 36 21 88 17 33 -3 67 -8 76 -12 12 -4 47 73 171 372 85 208 285
692 443 1076 159 384 291 694 295 690 4 -4 276 -588 604 -1298z m5486 745 l0
-461 88 78 c207 182 419 262 657 250 267 -15 421 -99 508 -277 65 -133 67
-162 67 -951 l0 -699 -385 0 -385 0 0 865 0 865 -26 10 c-63 24 -160 -2 -259
-70 -64 -43 -187 -161 -231 -221 l-34 -47 0 -701 0 -701 -380 0 -380 0 0 1260
0 1260 380 0 380 0 0 -460z m-3093 -150 c53 -24 83 -70 83 -129 0 -59 -38
-123 -86 -146 -46 -22 -121 -22 -162 -1 -51 26 -111 21 -160 -15 -110 -81
-226 -315 -285 -574 -18 -82 -21 -133 -24 -567 l-5 -478 -384 0 -384 0 2 948
3 947 383 3 382 2 0 -277 0 -277 69 140 c81 162 116 214 208 307 120 120 256
165 360 117z m1451 -9 c185 -38 383 -129 419 -193 30 -55 4 -118 -50 -118 -33
0 -56 13 -166 87 -135 91 -374 140 -568 117 l-53 -7 0 -837 0 -838 28 -7 c15
-4 81 -7 147 -6 204 1 388 61 539 175 85 64 109 73 141 52 80 -53 0 -159 -192
-255 -230 -115 -531 -139 -818 -66 -400 101 -668 415 -715 837 -48 425 160
799 544 979 96 44 232 85 331 98 103 14 295 6 413 -18z m6462 4 c33 -35 24
-104 -29 -230 -38 -90 -846 -1730 -860 -1747 -5 -5 -529 1048 -958 1925 l-23
47 402 0 403 0 240 -495 c132 -272 242 -495 245 -495 9 0 349 683 379 760 15
41 39 108 51 148 25 79 54 112 100 112 15 0 36 -10 50 -25z m1514 -10 c333
-87 565 -308 657 -627 16 -55 22 -112 26 -230 l6 -158 -587 0 -586 0 0 -380
c0 -209 2 -380 4 -380 2 0 28 -5 57 -10 30 -6 112 -11 182 -10 256 0 418 65
603 241 97 93 119 103 162 73 16 -11 22 -25 22 -54 0 -34 -8 -48 -60 -103
-248 -266 -736 -367 -1140 -235 -153 50 -349 172 -441 276 -96 108 -181 264
-213 392 -24 90 -32 287 -17 391 57 386 307 677 681 793 202 63 454 71 644 21z
m1934 25 c180 -20 324 -67 426 -140 63 -45 83 -102 52 -145 -22 -31 -66 -23
-127 22 -113 85 -243 133 -400 148 -139 13 -231 -15 -253 -77 -24 -68 72 -179
301 -351 188 -141 300 -236 399 -338 145 -150 194 -248 202 -404 9 -182 -40
-310 -167 -435 -82 -81 -170 -134 -293 -176 -306 -104 -706 -72 -954 77 -96
58 -137 136 -95 178 35 35 76 27 140 -26 107 -88 274 -150 441 -162 186 -13
327 22 370 91 25 41 25 59 1 106 -26 50 -63 83 -286 262 -377 301 -528 454
-607 615 -65 131 -68 287 -8 412 121 249 462 385 858 343z m-5598 -970 l0
-950 -380 0 -380 0 0 950 0 950 380 0 380 0 0 -950z"/>
<path d="M490 4523 c-73 -180 -143 -353 -155 -383 l-23 -55 81 -7 c131 -10
587 -9 587 1 0 9 -327 720 -349 758 -5 10 -49 -87 -141 -314z"/>
<path d="M6033 4713 l-23 -4 -2 -437 c-2 -240 -2 -447 0 -459 3 -21 9 -23 55
-23 96 0 228 46 325 112 l42 29 0 348 0 349 -42 17 c-80 33 -163 55 -228 61
-36 3 -74 6 -85 8 -11 2 -30 1 -42 -1z"/>
<path d="M11393 4712 l-23 -3 0 -460 0 -459 53 0 c71 0 188 34 267 77 110 60
100 18 100 414 l0 348 -78 30 c-97 37 -255 63 -319 53z"/>
<path d="M554 1493 l-190 -468 26 -8 c14 -4 200 -11 413 -14 l388 -6 -24 54
c-41 91 -419 904 -421 907 -2 1 -88 -208 -192 -465z"/>
<path d="M13130 2354 c-19 -2 -45 -7 -57 -9 l-23 -5 0 -385 0 -385 245 0 245
0 0 379 0 379 -62 12 c-67 12 -289 21 -348 14z"/>
</g>
</svg>
